# xmcd
#
# Track frame offsets:
# 150
# 21739
# 45884
# 59513
# 86897
# 102950
# 137552
# 159017
#
# Disc length: 2478 seconds
#
#
# Revision: 0
# Processed by: cddbd v1.5.2PL0 Copyright (c) Steve Scherf et al.
# Submitted via: FreeRIP 2.943 
#
DISCID=6109ac08
DTITLE=mendozza - cabra noche
DYEAR=2010
DGENRE=Avantgarde
TTITLE0=sludgehammer
TTITLE1=testament of hate
TTITLE2=witch hunt
TTITLE3=the offering
TTITLE4=wolf of the plains
TTITLE5=injustice for all
TTITLE6=dragonaut (sleep cover)
TTITLE7=fairies wear boots (black sabbath cover)
EXTD=
EXTT0=
EXTT1=
EXTT2=
EXTT3=
EXTT4=
EXTT5=
EXTT6=
EXTT7=
PLAYORDER=
